<svg xmlns="http://www.w3.org/2000/svg"><symbol id="City" viewBox="0 0 512 512"><path d="M320 100H192C188.817 100 185.765 101.264 183.515 103.515C181.264 105.765 180 108.817 180 112V316H228V256C228 252.817 229.264 249.765 231.515 247.515C233.765 245.264 236.817 244 240 244H272C275.183 244 278.235 245.264 280.485 247.515C282.736 249.765 284 252.817 284 256V316H332V112C332 108.817 330.736 105.765 328.485 103.515C326.235 101.264 323.183 100 320 100ZM220 208C220 211.183 218.736 214.235 216.485 216.485C214.235 218.736 211.183 220 208 220C204.817 220 201.765 218.736 199.515 216.485C197.264 214.235 196 211.183 196 208V192C196 188.817 197.264 185.765 199.515 183.515C201.765 181.264 204.817 180 208 180C211.183 180 214.235 181.264 216.485 183.515C218.736 185.765 220 188.817 220 192V208ZM220 144C220 147.183 218.736 150.235 216.485 152.485C214.235 154.736 211.183 156 208 156C204.817 156 201.765 154.736 199.515 152.485C197.264 150.235 196 147.183 196 144V128C196 124.817 197.264 121.765 199.515 119.515C201.765 117.264 204.817 116 208 116C211.183 116 214.235 117.264 216.485 119.515C218.736 121.765 220 124.817 220 128V144ZM268 208C268 211.183 266.736 214.235 264.485 216.485C262.235 218.736 259.183 220 256 220C252.817 220 249.765 218.736 247.515 216.485C245.264 214.235 244 211.183 244 208V192C244 188.817 245.264 185.765 247.515 183.515C249.765 181.264 252.817 180 256 180C259.183 180 262.235 181.264 264.485 183.515C266.736 185.765 268 188.817 268 192V208ZM268 144C268 147.183 266.736 150.235 264.485 152.485C262.235 154.736 259.183 156 256 156C252.817 156 249.765 154.736 247.515 152.485C245.264 150.235 244 147.183 244 144V128C244 124.817 245.264 121.765 247.515 119.515C249.765 117.264 252.817 116 256 116C259.183 116 262.235 117.264 264.485 119.515C266.736 121.765 268 124.817 268 128V144ZM316 208C316 211.183 314.736 214.235 312.485 216.485C310.235 218.736 307.183 220 304 220C300.817 220 297.765 218.736 295.515 216.485C293.264 214.235 292 211.183 292 208V192C292 188.817 293.264 185.765 295.515 183.515C297.765 181.264 300.817 180 304 180C307.183 180 310.235 181.264 312.485 183.515C314.736 185.765 316 188.817 316 192V208ZM316 144C316 147.183 314.736 150.235 312.485 152.485C310.235 154.736 307.183 156 304 156C300.817 156 297.765 154.736 295.515 152.485C293.264 150.235 292 147.183 292 144V128C292 124.817 293.264 121.765 295.515 119.515C297.765 117.264 300.817 116 304 116C307.183 116 310.235 117.264 312.485 119.515C314.736 121.765 316 124.817 316 128V144Z" fill="#5773FF"/>
<path d="M256 4C143.514 4 52 95.514 52 208C52 242.837 62.568 280.315 83.412 319.4C99.783 350.095 122.533 381.915 151.031 413.976C199.279 468.251 246.8 504.1 248.8 505.6C250.877 507.158 253.404 508 256 508C258.596 508 261.123 507.158 263.2 505.6C265.2 504.1 312.721 468.251 360.969 413.973C389.469 381.912 412.217 350.092 428.588 319.397C449.432 280.315 460 242.837 460 208C460 95.514 368.486 4 256 4ZM256 368C233.806 368.009 211.854 363.389 191.546 354.436C171.238 345.482 153.021 332.391 138.058 316H168V212H96.051C96.0177 210.667 96.0007 209.333 96 208C96 119.776 167.776 48 256 48C344.224 48 416 119.776 416 208C416 209.337 415.983 210.67 415.949 212H344V316H373.942C358.979 332.391 340.762 345.482 320.454 354.436C300.146 363.389 278.194 368.009 256 368Z" fill="#5773FF"/>
</symbol><symbol id="Edu" viewBox="0 0 512 512"><g clip-path="url(#clip0)">
<path d="M501.991 128.355L260.991 43.3237C257.762 42.1837 254.239 42.1837 251.01 43.3237L10.01 128.355C4.01801 130.469 0.00801199 136.129 1.1987e-05 142.483C-0.00798801 148.837 3.98901 154.506 9.97601 156.634L250.976 242.311C252.601 242.889 254.301 243.178 256 243.178C257.7 243.178 259.399 242.889 261.024 242.311L502.024 156.634C508.011 154.506 512.007 148.837 512 142.483C511.992 136.129 507.982 130.469 501.991 128.355Z" fill="#5773FF"/>
<path d="M475.975 328.574V197.734L445.975 208.399V328.574C436.939 333.775 430.85 343.52 430.85 354.695C430.85 365.869 436.939 375.615 445.975 380.816V454.532C445.975 462.816 452.691 469.532 460.975 469.532C469.259 469.532 475.975 462.816 475.975 454.532V380.817C485.011 375.617 491.1 365.87 491.1 354.696C491.1 343.521 485.012 333.775 475.975 328.574Z" fill="#5773FF"/>
<path d="M256 273.178C250.851 273.178 245.78 272.303 240.927 270.578L105.444 222.412V288.421C105.444 304.57 122.291 318.227 155.517 329.011C184.478 338.411 220.164 343.588 256 343.588C291.836 343.588 327.521 338.411 356.483 329.011C389.709 318.227 406.556 304.57 406.556 288.421V222.412L271.074 270.578C266.22 272.303 261.149 273.178 256 273.178Z" fill="#5773FF"/>
</g>
<defs>
<clipPath id="clip0">
<rect width="512" height="512" fill="white"/>
</clipPath>
</defs>
</symbol><symbol id="Fav" viewBox="0 0 512 512"><path d="M441.77 296.056C441.77 270.463 420.817 247.311 387.028 230.586C387.85 247.803 389.227 266.825 391.444 288.234L391.632 290.192L390.791 291.962C389.915 293.776 368.041 336.791 254.766 336.791C250.905 336.791 247.785 333.662 247.785 329.809C247.785 329.613 247.892 329.425 247.91 329.237C248.214 325.697 251.066 322.899 254.668 322.846C254.704 322.846 254.74 322.828 254.775 322.828C259.88 322.828 264.707 322.703 269.418 322.542C348.903 319.664 372.645 293.696 377.302 287.278C374.916 263.723 373.476 242.86 372.734 224.258C369.499 142.072 380.225 104.725 386.554 82.7444C392.159 63.3199 393.017 60.3343 379.573 46.8722C353.989 21.2977 298.988 13.9588 269.444 11.8581C264.528 11.5006 260.335 11.3039 257.091 11.1788C252.836 11.0179 250.217 11.0089 249.787 11V11.0447C217.366 10.7676 153.425 14.0035 125.5 41.9289C91.1471 76.2815 137.21 67.6375 130.076 228.28C93.3461 245.175 70.2298 269.248 70.2298 296.056C70.2298 347.062 153.407 388.413 256.009 388.413C358.593 388.422 441.77 347.062 441.77 296.056ZM135.333 79.4012C136.968 75.906 141.116 74.3954 144.629 76.0491C144.879 76.1653 150.806 78.8738 161.005 82.3689C179.518 88.7156 212.199 97.6367 251.137 98.5217C257.091 98.6469 263.205 98.5932 269.418 98.3072C293.589 97.1987 319.521 92.622 345.569 82.3779C350.467 80.456 355.339 78.409 360.211 76.0759C363.688 74.3775 367.854 75.8792 369.525 79.3654C371.188 82.8516 369.713 87.0083 366.236 88.6799C333.01 104.591 299.774 111.215 269.409 112.627C265.073 112.833 260.8 112.931 256.59 112.931C254.811 112.931 253.095 112.86 251.361 112.815C188.636 111.644 141.679 90.1101 138.676 88.6978C135.198 87.044 133.697 82.8963 135.333 79.4012Z" fill="#5773FF"/>
<path d="M117.392 428.192C117.204 429.792 117.115 431.338 117.052 432.849C111.501 434.53 106.603 439.321 106.719 446.588C106.996 463.966 114.299 475.551 125.83 480.485C134.412 501.17 154.516 506.578 176.809 495.02C190.191 488.083 202.187 478.885 214.335 470.044C218.528 466.987 232.026 455.134 241.197 451.692C242.52 451.576 243.798 451.263 245.005 450.772C245.586 450.736 246.078 450.87 246.587 450.959C248.357 451.8 250.324 452.22 252.433 452.148C254.534 452.22 256.51 451.8 258.271 450.959C258.798 450.879 259.272 450.745 259.871 450.772C261.077 451.263 262.347 451.576 263.679 451.692C272.841 455.134 286.348 466.987 290.54 470.044C302.688 478.894 314.685 488.083 328.057 495.02C350.351 506.578 370.455 501.17 379.045 480.485C390.559 475.551 397.871 463.966 398.148 446.588C398.282 439.321 393.374 434.53 387.823 432.849C387.77 431.338 387.662 429.792 387.475 428.192C385.553 411.699 359.451 411.521 361.4 428.192C363 441.833 360.962 445.56 346.865 442.593C333.287 439.741 320.254 435.084 307.095 430.757C290.46 425.287 269.301 417.161 252.433 424.482C235.557 417.161 214.407 425.287 197.762 430.757C184.613 435.084 171.58 439.741 157.993 442.593C143.905 445.56 141.858 441.833 143.458 428.192C145.442 411.521 119.332 411.708 117.392 428.192Z" fill="#5773FF"/>
</symbol><symbol id="Logo" viewBox="0 0 512 512"><path d="M450.111 297.854C450.111 271.113 428.217 246.921 392.911 229.445C393.77 247.435 395.208 267.311 397.525 289.681L397.721 291.727L396.843 293.576C395.928 295.472 373.072 340.418 254.711 340.418C250.676 340.418 247.416 337.149 247.416 333.123C247.416 332.918 247.528 332.722 247.547 332.525C247.865 328.827 250.844 325.903 254.608 325.847C254.646 325.847 254.683 325.828 254.72 325.828C260.054 325.828 265.097 325.698 270.02 325.53C353.074 322.522 377.882 295.388 382.748 288.682C380.254 264.07 378.751 242.27 377.975 222.832C374.594 136.957 385.803 97.9334 392.416 74.9656C398.272 54.669 399.169 51.5493 385.121 37.4828C358.389 10.7601 300.918 3.09165 270.048 0.896673C264.911 0.523059 260.53 0.317572 257.139 0.186807C252.693 0.0186807 249.957 0.00934034 249.508 0V0.0467017C215.631 -0.242849 148.82 3.13835 119.64 32.3176C83.7454 68.2125 131.876 59.1804 124.423 227.036C86.0432 244.689 61.889 269.842 61.889 297.854C61.889 351.15 148.801 394.358 256.009 394.358C363.199 394.368 450.111 351.15 450.111 297.854ZM129.915 71.4723C131.624 67.8202 135.958 66.2417 139.629 67.9696C139.89 68.0911 146.083 70.9212 156.74 74.5733C176.084 81.2049 210.232 90.5266 250.919 91.4513C257.139 91.582 263.528 91.526 270.02 91.2271C295.276 90.0689 322.372 85.2866 349.59 74.5826C354.709 72.5744 359.799 70.4355 364.89 67.9977C368.523 66.223 372.876 67.7922 374.622 71.4349C376.36 75.0776 374.818 79.4209 371.185 81.1675C336.467 97.7933 301.74 104.715 270.01 106.19C265.48 106.405 261.016 106.508 256.616 106.508C254.758 106.508 252.964 106.433 251.152 106.386C185.611 105.163 136.546 82.662 133.408 81.1862C129.775 79.4583 128.205 75.1243 129.915 71.4723Z" fill="#5773FF"/>
<path d="M111.169 435.923C110.972 437.595 110.879 439.211 110.814 440.789C105.013 442.545 99.8947 447.552 100.016 455.145C100.306 473.303 107.937 485.408 119.986 490.564C128.953 512.177 149.959 517.828 173.254 505.751C187.236 498.503 199.771 488.892 212.464 479.654C216.845 476.46 230.949 464.075 240.532 460.479C241.915 460.357 243.25 460.03 244.511 459.517C245.118 459.479 245.632 459.619 246.164 459.713C248.014 460.591 250.069 461.03 252.273 460.955C254.468 461.03 256.532 460.591 258.372 459.713C258.923 459.629 259.418 459.489 260.044 459.517C261.305 460.03 262.631 460.357 264.023 460.479C273.597 464.075 287.71 476.46 292.091 479.654C304.784 488.901 317.319 498.503 331.292 505.751C354.587 517.828 375.594 512.177 384.57 490.564C396.6 485.408 404.24 473.303 404.53 455.145C404.67 447.552 399.542 442.545 393.742 440.789C393.686 439.211 393.574 437.595 393.378 435.923C391.369 418.69 364.096 418.503 366.132 435.923C367.804 450.176 365.674 454.071 350.944 450.97C336.756 447.991 323.138 443.124 309.389 438.604C292.007 432.887 269.898 424.397 252.273 432.047C234.638 424.397 212.539 432.887 195.147 438.604C181.408 443.124 167.79 447.991 153.592 450.97C138.872 454.071 136.733 450.176 138.405 435.923C140.478 418.503 113.195 418.699 111.169 435.923Z" fill="#5773FF"/>
</symbol><symbol id="Messages" viewBox="0 0 512 512"><path d="M407 46H105C47.1016 46 0 93.1016 0 151V313.172C0 359.371 30.332 399.609 74.2852 412.488L124.996 463.203C127.812 466.016 131.625 467.598 135.605 467.598C139.582 467.598 143.398 466.016 146.211 463.203L192.73 416.68H407C464.898 416.68 512 369.578 512 311.68V151C512 93.1016 464.898 46 407 46ZM145.758 257.852C145.758 249.566 152.473 242.852 160.758 242.852H351.242C359.527 242.852 366.242 249.566 366.242 257.852C366.242 266.137 359.527 272.852 351.242 272.852H160.758C152.473 272.852 145.758 266.137 145.758 257.852ZM351.242 219.828H160.758C152.473 219.828 145.758 213.113 145.758 204.828C145.758 196.547 152.473 189.828 160.758 189.828H351.242C359.527 189.828 366.242 196.547 366.242 204.828C366.242 213.113 359.527 219.828 351.242 219.828Z" fill="white"/>
</symbol><symbol id="Music" viewBox="0 0 512 512"><path d="M505.161 3.99824C500.882 0.523958 495.25 -0.682899 489.765 0.414243L160.622 73.5571C152.247 75.4222 146.286 82.8462 146.286 91.404V380.684C130.962 371.395 112.091 365.69 91.4286 365.69C41.0331 365.69 0 398.494 0 438.832C0 479.171 41.0331 511.975 91.4286 511.975C141.824 511.975 182.857 479.171 182.857 438.832V215.783L475.429 150.759V307.541C460.105 298.252 441.234 292.547 420.571 292.547C370.139 292.547 329.143 325.351 329.143 365.69C329.143 406.028 370.139 438.832 420.571 438.832C471.003 438.832 512 406.028 512 365.69V18.2611C512 12.7022 509.513 7.47253 505.161 3.99824Z" fill="white"/>
</symbol><symbol id="News" viewBox="0 0 512 512"><path d="M493.714 128H402.286V18.2861C402.286 8.18678 394.099 0 384 0H18.2861C8.18678 0 0 8.18678 0 18.2861V438.857C0 479.253 32.7471 512 73.1432 512H438.857C479.253 512 512 479.253 512 438.857V146.285C512 136.187 503.813 128 493.714 128ZM146.285 91.4282H255.999C266.099 91.4282 274.286 99.6149 274.286 109.714C274.286 119.813 266.099 128 255.999 128H146.285C136.186 128 127.999 119.813 127.999 109.714C127.999 99.6149 136.187 91.4282 146.285 91.4282ZM310.857 438.857H91.4282C81.3289 438.857 73.1421 430.67 73.1421 420.571C73.1421 410.471 81.3289 402.285 91.4282 402.285H310.857C320.956 402.285 329.143 410.471 329.143 420.571C329.143 430.67 320.956 438.857 310.857 438.857ZM310.857 365.714H91.4282C81.3289 365.714 73.1421 357.527 73.1421 347.428C73.1421 337.328 81.3289 329.142 91.4282 329.142H310.857C320.956 329.142 329.143 337.328 329.143 347.428C329.143 357.527 320.956 365.714 310.857 365.714ZM310.857 292.572H91.4282C81.3289 292.572 73.1421 284.385 73.1421 274.286C73.1421 264.186 81.3289 255.999 91.4282 255.999H310.857C320.956 255.999 329.143 264.186 329.143 274.286C329.143 284.385 320.956 292.572 310.857 292.572ZM310.857 219.428H91.4282C81.3289 219.428 73.1421 211.242 73.1421 201.142C73.1421 191.043 81.3289 182.856 91.4282 182.856H310.857C320.956 182.856 329.143 191.043 329.143 201.142C329.143 211.242 320.956 219.428 310.857 219.428ZM475.428 438.857C475.428 459.054 459.054 475.428 438.857 475.428C418.659 475.428 402.286 459.054 402.286 438.857V164.571H475.429V438.857H475.428Z" fill="white"/>
</symbol><symbol id="Me" viewBox="0 0 512 512"><g clip-path="url(#clip0)">
<path d="M255.999 250.402C312.925 250.402 359.076 194.348 359.076 125.202C359.076 56.0538 343.924 0 255.999 0C168.074 0 152.919 56.0538 152.919 125.202C152.919 194.348 199.071 250.402 255.999 250.402Z" fill="#fff"/>
<path d="M61.3079 441.567C61.2903 437.35 61.2727 440.379 61.3079 441.567V441.567Z" fill="#fff"/>
<path d="M450.688 444.86C450.743 443.706 450.706 436.854 450.688 444.86V444.86Z" fill="#fff"/>
<path d="M450.466 436.514C448.557 316.059 432.825 281.736 312.442 260.009C312.442 260.009 295.497 281.603 255.999 281.603C216.502 281.603 199.554 260.009 199.554 260.009C80.4844 281.499 63.7962 315.313 61.6019 432.6C61.422 442.178 61.3386 442.681 61.3064 441.569C61.3137 443.652 61.3225 447.506 61.3225 454.224C61.3225 454.224 89.9828 512.002 255.999 512.002C422.013 512.002 450.677 454.224 450.677 454.224C450.677 449.908 450.68 446.906 450.684 444.864C450.652 445.551 450.587 444.218 450.466 436.514Z" fill="#fff"/>
</g>
<defs>
<clipPath id="clip0">
<rect width="512" height="512" fill="white"/>
</clipPath>
</defs>
</symbol><symbol id="Send" viewBox="0 0 512 512"><g clip-path="url(#clip0)">
<path d="M186.669 375.722V474.666C186.669 481.578 191.106 487.7 197.677 489.876C199.319 490.41 201.005 490.666 202.669 490.666C207.661 490.666 212.482 488.319 215.554 484.138L273.431 405.375L186.669 375.722Z" fill="white"/>
<path d="M505.281 2.96405C500.374 -0.513283 493.932 -0.982617 488.598 1.81205L8.59822 252.479C2.92355 255.444 -0.425779 261.503 0.0435545 267.881C0.534221 274.281 4.77956 279.743 10.8169 281.812L144.257 327.423L428.438 84.4361L208.534 349.375L432.172 425.812C433.836 426.367 435.585 426.665 437.334 426.665C440.236 426.665 443.116 425.876 445.654 424.34C449.708 421.865 452.46 417.705 453.164 413.033L511.83 18.3667C512.705 12.3934 510.188 6.46272 505.281 2.96405Z" fill="white"/>
</g>
<defs>
<clipPath id="clip0">
<rect width="512" height="512" fill="white"/>
</clipPath>
</defs>
</symbol><symbol id="Settings" viewBox="0 0 512 512"><g clip-path="url(#clip0)">
<path d="M499.953 197.703L460.602 189.148C457.18 178.672 452.941 168.453 447.938 158.609L469.723 124.723C473.613 118.668 472.758 110.719 467.672 105.633L406.367 44.3281C401.281 39.2422 393.332 38.3867 387.277 42.2773L353.391 64.0625C343.547 59.0586 333.328 54.8203 322.852 51.3984L314.297 12.0469C312.77 5.01562 306.543 0 299.348 0H212.652C205.457 0 199.23 5.01562 197.703 12.0469L189.148 51.3984C178.672 54.8203 168.453 59.0586 158.609 64.0625L124.723 42.2773C118.668 38.3867 110.719 39.2422 105.633 44.3281L44.3281 105.633C39.2422 110.719 38.3867 118.668 42.2773 124.723L64.0625 158.609C59.0586 168.453 54.8203 178.672 51.3984 189.148L12.0469 197.703C5.01562 199.234 0 205.457 0 212.652V299.348C0 306.543 5.01562 312.766 12.0469 314.297L51.3984 322.852C54.8203 333.328 59.0586 343.547 64.0625 353.391L42.2773 387.277C38.3867 393.332 39.2422 401.281 44.3281 406.367L105.633 467.672C110.719 472.758 118.668 473.613 124.723 469.723L158.609 447.938C168.453 452.941 178.672 457.18 189.148 460.602L197.703 499.953C199.23 506.984 205.457 512 212.652 512H299.348C306.543 512 312.77 506.984 314.297 499.953L322.852 460.602C333.328 457.18 343.547 452.941 353.391 447.938L387.277 469.723C393.332 473.613 401.281 472.762 406.367 467.672L467.672 406.367C472.758 401.281 473.613 393.332 469.723 387.277L447.938 353.391C452.941 343.547 457.18 333.328 460.602 322.852L499.953 314.297C506.984 312.766 512 306.543 512 299.348V212.652C512 205.457 506.984 199.234 499.953 197.703ZM347.793 256C347.793 306.613 306.613 347.793 256 347.793C205.387 347.793 164.207 306.613 164.207 256C164.207 205.387 205.387 164.207 256 164.207C306.613 164.207 347.793 205.387 347.793 256Z" fill="#A7A7A7"/>
</g>
<defs>
<clipPath id="clip0">
<rect width="512" height="512" fill="white"/>
</clipPath>
</defs>
</symbol><symbol id="Tort" viewBox="0 0 512 512"><path d="M135.168 91.9004C151.998 91.9004 165.642 78.2514 165.642 61.4154C165.642 50.1954 152.109 24.9974 143.079 9.43442C139.555 3.35942 130.782 3.35942 127.257 9.43442C118.228 24.9974 104.694 50.1954 104.694 61.4154C104.694 78.2514 118.338 91.9004 135.168 91.9004Z" fill="#5773FF"/>
<path d="M255.999 91.9004C272.829 91.9004 286.473 78.2514 286.473 61.4154C286.473 50.1954 272.94 24.9974 263.91 9.43442C260.386 3.35942 251.613 3.35942 248.088 9.43442C239.059 24.9974 225.525 50.1954 225.525 61.4154C225.525 78.2514 239.168 91.9004 255.999 91.9004Z" fill="#5773FF"/>
<path d="M376.83 91.9004C393.66 91.9004 407.304 78.2514 407.304 61.4154C407.304 50.1954 393.771 24.9974 384.741 9.43442C381.216 3.35942 372.444 3.35942 368.919 9.43442C359.89 24.9974 346.356 50.1954 346.356 61.4154C346.356 78.2514 360 91.9004 376.83 91.9004Z" fill="#5773FF"/>
<path d="M118.391 116.95C110.937 116.95 104.894 122.995 104.894 130.452V239.376H165.444V130.453C165.444 122.996 159.402 116.951 151.947 116.951H118.391V116.95Z" fill="#5773FF"/>
<path d="M239.222 116.95C231.768 116.95 225.725 122.995 225.725 130.452V239.376H286.275V130.453C286.275 122.996 280.232 116.951 272.778 116.951H239.222V116.95Z" fill="#5773FF"/>
<path d="M360.056 116.95C352.602 116.95 346.559 122.995 346.559 130.452V239.376H407.109V130.453C407.109 122.996 401.066 116.951 393.612 116.951H360.056V116.95Z" fill="#5773FF"/>
<path d="M66.2516 356.094C68.6936 356.094 71.1926 355.75 73.6766 355.014L111.543 343.805C123.92 340.141 136.827 338.309 149.733 338.309C162.639 338.309 175.546 340.141 187.923 343.805L217.811 352.653C230.188 356.317 243.095 358.149 256.001 358.149C268.907 358.149 281.814 356.317 294.191 352.653L324.079 343.805C336.456 340.141 349.363 338.309 362.269 338.309C375.175 338.309 388.082 340.141 400.459 343.805L438.325 355.014C440.808 355.749 443.309 356.094 445.75 356.094C457.868 356.094 468.537 347.613 468.537 336.348V297.676C468.537 284.856 456.517 274.463 441.689 274.463H70.3136C55.4856 274.463 43.4656 284.856 43.4656 297.676V336.348C43.4656 347.613 54.1356 356.094 66.2516 356.094Z" fill="#5773FF"/>
<path d="M497 477.118H456.054V385.129C452.683 385.76 449.235 386.093 445.749 386.093C440.357 386.093 434.993 385.315 429.808 383.78L391.942 372.571C382.389 369.743 372.405 368.309 362.268 368.309C352.131 368.309 342.147 369.743 332.594 372.571L302.706 381.419C287.62 385.885 271.907 388.149 256.001 388.149C240.095 388.149 224.381 385.885 209.295 381.419L179.407 372.571C169.854 369.743 159.87 368.309 149.733 368.309C139.596 368.309 129.612 369.743 120.059 372.571L82.193 383.78C77.007 385.315 71.644 386.094 66.252 386.094C62.765 386.094 59.317 385.761 55.947 385.13V477.119H15C6.716 477.119 0 483.835 0 492.119C0 500.403 6.716 507.119 15 507.119H497C505.284 507.119 512 500.403 512 492.119C512 483.835 505.284 477.118 497 477.118Z" fill="#5773FF"/>
</symbol><symbol id="Web" viewBox="0 0 512 512"><path d="M0 343.319V396.289C0 404.573 6.716 411.289 15 411.289H497C505.284 411.289 512 404.573 512 396.289V343.319H0Z" fill="#5773FF"/>
<path d="M272.873 185.401C272.472 174.163 267.252 166.425 259.883 166.425C250.28 166.425 244.541 176.894 244.541 187.014C244.541 200.056 252.22 209.145 259.111 209.145C265.466 209.145 272.234 200.968 272.851 188.616L272.873 185.401Z" fill="#5773FF"/>
<path d="M512 313.318V28.9313C512 20.6473 505.284 13.9313 497 13.9313H15C6.716 13.9313 0 20.6473 0 28.9313V313.318H512ZM353.91 211.188C347.64 226.951 332.264 243.794 307.912 243.794C299.035 243.794 290.527 240.156 283.954 233.551C283.318 232.912 282.716 232.244 282.13 231.562C275.48 236.385 267.616 239.145 259.112 239.145C246.979 239.145 235.219 233.3 226.85 223.109C218.912 213.444 214.541 200.625 214.541 187.014C214.541 158.646 234.458 136.425 259.884 136.425C265.23 136.425 270.362 137.443 275.115 139.393C277.702 134.872 282.563 131.826 288.133 131.826H288.237C296.521 131.882 303.191 138.642 303.135 146.927L302.736 206.136C302.724 208.467 303.653 210.815 305.22 212.391C305.64 212.813 306.743 213.795 307.912 213.795C319.352 213.795 324.396 204.219 326.033 200.102C332.78 183.14 334.062 169.793 330.307 155.526C324.264 135.725 310.854 119.515 292.526 109.861C274.13 100.173 253.077 98.3143 233.241 104.628C214.485 110.599 198.865 123.499 189.258 140.953C179.651 158.407 177.116 178.497 182.12 197.522C186.467 214.053 195.842 228.304 209.23 238.734C222.146 248.796 238.22 254.586 254.492 255.036C262.773 255.265 269.301 262.164 269.072 270.445C268.846 278.585 262.176 285.03 254.085 285.03C253.944 285.03 253.804 285.028 253.663 285.024C231.044 284.399 208.717 276.363 190.793 262.399C172.173 247.892 159.141 228.096 153.106 205.151C146.136 178.65 149.641 150.713 162.975 126.486C176.304 102.268 198.027 84.3523 224.141 76.0393C251.693 67.2683 280.943 69.8533 306.505 83.3153C332.071 96.7803 350.749 119.429 359.098 147.089C359.145 147.244 359.189 147.4 359.231 147.556C364.781 168.355 363.141 187.98 353.91 211.188Z" fill="#5773FF"/>
<path d="M197.609 441.288V468.067H193.288C185.004 468.067 178.288 474.783 178.288 483.067C178.288 491.351 185.004 498.066 193.288 498.066H318.71C326.993 498.066 333.71 491.351 333.71 483.067C333.71 474.783 326.993 468.067 318.71 468.067H314.389V441.288H197.609Z" fill="#5773FF"/>
</symbol></svg>